<svg width="21" height="21" viewBox="0 0 21 21" fill="none" xmlns="http://www.w3.org/2000/svg">
<path d="M2.3033 2.3033C-0.624121 5.23072 -0.584016 10.0226 2.39282 12.9994C5.08923 15.6958 9.26287 15.9875 12.2022 13.8462L18.3231 19.9671C18.7869 20.4309 19.5249 20.4371 19.981 19.981C20.4371 19.5249 20.4309 18.7868 19.9671 18.3231L13.8462 12.2022C15.9875 9.26287 15.6958 5.08923 12.9994 2.39282C10.0226 -0.58402 5.23072 -0.624125 2.3033 2.3033ZM12.3609 12.3609C9.82594 14.8959 5.68114 14.8559 3.10877 12.2835C0.530999 9.70571 0.496354 5.56631 3.03133 3.03133C5.56631 0.49635 9.7111 0.536388 12.2835 3.10876C14.8612 5.68653 14.8959 9.82593 12.3609 12.3609Z" fill="#FBF3DC"/>
</svg>
